<?xml version="1.0" encoding="UTF-8"?>
<svg version="1.1" xmlns="http://www.w3.org/2000/svg" width="512" height="512">
<path d="M0 0 C1.43784271 -0.00462417 2.87568067 -0.01098713 4.31350899 -0.01890898 C8.21434959 -0.03541785 12.11479262 -0.02744142 16.01563358 -0.0149641 C20.24203582 -0.00583926 24.46837406 -0.01991984 28.69476318 -0.03088379 C36.95442926 -0.04859497 45.21394928 -0.04486222 53.47362089 -0.03323323 C60.191268 -0.02416988 66.9088744 -0.0229874 73.62652588 -0.02732849 C75.06508334 -0.02824789 75.06508334 -0.02824789 76.53270257 -0.02918586 C78.48146233 -0.03046487 80.43022209 -0.03176172 82.37898183 -0.03307623 C100.61786467 -0.04446034 118.85666686 -0.03140244 137.09553647 -0.00987476 C152.71786545 0.00799424 168.34007551 0.00488952 183.96240234 -0.0135498 C202.13962445 -0.03499492 220.31677602 -0.04336191 238.49400902 -0.03110075 C240.43527602 -0.02982666 242.37654303 -0.02856918 244.31781006 -0.02732849 C245.27274923 -0.02671139 246.22768841 -0.02609429 247.21156514 -0.02545848 C253.91484413 -0.0220165 260.61807808 -0.027809 267.3213501 -0.0372467 C275.49943848 -0.04850863 283.67737344 -0.04533899 291.85544443 -0.02412373 C296.02157176 -0.01366942 300.18744406 -0.00939448 304.35356903 -0.02272034 C308.17815234 -0.03476799 312.00224776 -0.02788179 315.82678771 -0.00681013 C317.84226487 -0.00032827 319.85777677 -0.01316854 321.87321663 -0.02703905 C334.06584603 0.07600748 346.462779 2.40054252 357.28466797 8.25793457 C357.94144531 8.6008252 358.59822266 8.94371582 359.27490234 9.29699707 C378.31026279 19.49384705 392.7488041 35.59660416 399.26513672 56.42199707 C402.16078916 66.52616195 403.12377542 76.21589856 403.10588074 86.68327332 C403.10814629 87.66930489 403.11041185 88.65533646 403.11274606 89.67124778 C403.11904495 92.95495693 403.11825935 96.23862437 403.11743164 99.52233887 C403.12042572 101.88515781 403.12382882 104.24797626 403.12760925 106.61079407 C403.13642864 113.01595816 403.13878651 119.42110888 403.13942504 125.82627845 C403.13992028 129.83243187 403.14220972 133.83858363 403.14492226 137.8447361 C403.15372163 151.11232707 403.15834282 164.37990997 403.15759178 177.64750388 C403.15753185 178.71863313 403.15753185 178.71863313 403.1574707 179.81140137 C403.15742982 180.52636828 403.15738894 181.2413352 403.15734682 181.97796778 C403.15694067 193.55596709 403.16650433 205.13393384 403.18060907 216.71192374 C403.19500633 228.62486931 403.2018774 240.53779903 403.20101529 252.45075351 C403.20068445 259.1289766 403.2035788 265.80717032 403.21419334 272.4853878 C403.22391026 278.77025433 403.22392891 285.05504901 403.21667671 291.33991814 C403.2156353 293.63839066 403.21796725 295.93686774 403.22403717 298.23533249 C403.29178054 325.67852923 399.63799039 348.06847589 380.97216797 369.50793457 C380.19486328 370.4283252 380.19486328 370.4283252 379.40185547 371.36730957 C367.00584264 384.94686132 347.26392989 393.09349145 329.23528671 394.87777042 C325.46621442 395.01671972 321.71585246 395.04182519 317.94433594 395.01586914 C316.50649323 395.02049331 315.06865527 395.02685627 313.63082695 395.03477812 C309.72998634 395.05128699 305.82954332 395.04331056 301.92870235 395.03083324 C297.70230011 395.0217084 293.47596188 395.03578898 289.24957275 395.04675293 C280.98990668 395.06446411 272.73038666 395.06073136 264.47071505 395.04910237 C257.75306794 395.04003902 251.03546153 395.03885654 244.31781006 395.04319763 C242.8792526 395.04411703 242.8792526 395.04411703 241.41163337 395.045055 C239.46287361 395.04633401 237.51411385 395.04763086 235.56535411 395.04894537 C217.32647127 395.06032948 199.08766908 395.04727158 180.84879947 395.0257439 C165.22647049 395.0078749 149.60426043 395.01097962 133.98193359 395.02941895 C115.80471149 395.05086406 97.62755991 395.05923105 79.45032692 395.04696989 C77.50905992 395.0456958 75.5677929 395.04443832 73.62652588 395.04319763 C72.6715867 395.04258053 71.71664753 395.04196343 70.7327708 395.04132763 C64.02949181 395.03788564 57.32625786 395.04367814 50.62298584 395.05311584 C42.44489746 395.06437777 34.26696249 395.06120813 26.08889151 395.03999287 C21.92276418 395.02953856 17.75689188 395.02526362 13.59076691 395.03858948 C9.7661836 395.05063713 5.94208818 395.04375093 2.11754823 395.02267927 C0.10207106 395.01619741 -1.91344083 395.02903768 -3.92888069 395.04290819 C-16.12151009 394.93986166 -28.51844306 392.61532662 -39.34033203 386.75793457 C-39.99710938 386.41504395 -40.65388672 386.07215332 -41.33056641 385.71887207 C-60.36592686 375.52202209 -74.80446816 359.41926498 -81.32080078 338.59387207 C-84.21645323 328.48970719 -85.17943948 318.79997058 -85.1615448 308.33259583 C-85.16381036 307.34656425 -85.16607591 306.36053268 -85.16841012 305.34462136 C-85.17470901 302.06091221 -85.17392341 298.77724477 -85.1730957 295.49353027 C-85.17608978 293.13071133 -85.17949288 290.76789288 -85.18327332 288.40507507 C-85.1920927 281.99991099 -85.19445058 275.59476027 -85.1950891 269.18959069 C-85.19558434 265.18343727 -85.19787378 261.17728551 -85.20058632 257.17113304 C-85.20938569 243.90354207 -85.21400688 230.63595917 -85.21325585 217.36836527 C-85.21321589 216.65427909 -85.21317593 215.94019292 -85.21313477 215.20446777 C-85.21309388 214.48950086 -85.213053 213.77453394 -85.21301088 213.03790136 C-85.21260473 201.45990205 -85.22216839 189.8819353 -85.23627313 178.3039454 C-85.25067039 166.39099983 -85.25754146 154.47807011 -85.25667936 142.56511563 C-85.25634852 135.88689254 -85.25924287 129.20869882 -85.26985741 122.53048134 C-85.27957432 116.24561481 -85.27959297 109.96082014 -85.27234077 103.675951 C-85.27129936 101.37747848 -85.27363131 99.0790014 -85.27970123 96.78053665 C-85.3474446 69.33733991 -81.69365445 46.94739325 -63.02783203 25.50793457 C-62.50962891 24.89434082 -61.99142578 24.28074707 -61.45751953 23.64855957 C-46.01723078 6.73407239 -22.16060626 -0.15251208 0 0 Z M104.97216797 119.50793457 C101.83250041 122.73672629 101.59302415 125.14743715 101.57775879 129.57395935 C101.566409 130.81752701 101.5550592 132.06109467 101.54336548 133.34234619 C101.54600873 134.71777408 101.54897994 136.09320138 101.55224609 137.46862793 C101.54490556 138.91922154 101.53631937 140.3698093 101.52658081 141.82038879 C101.50435477 145.75843027 101.50143464 149.69626258 101.50332832 153.63435817 C101.50344797 156.92219578 101.49488628 160.20998898 101.48655081 163.49781424 C101.46731299 171.25439161 101.46443435 179.01086136 101.47119141 186.76745605 C101.47783356 194.76899724 101.45496201 202.77007761 101.41787767 210.77152532 C101.38719 217.64214262 101.37581959 224.5126116 101.37971449 231.38329607 C101.3817829 235.48652147 101.37628901 239.58938825 101.3518219 243.69254875 C101.32957219 247.55133333 101.3314169 251.40936816 101.35174942 255.26815605 C101.35516266 256.68350302 101.35005664 258.09890029 101.33576584 259.51417923 C100.84870361 267.75384153 100.84870361 267.75384153 104.31921387 274.78309631 C107.8492743 277.07819191 109.69805469 278.16871923 113.97216797 278.50793457 C122.71390177 275.05490389 130.75535233 269.74655143 138.72216797 264.82043457 C141.19432084 263.3031558 143.66903444 261.79008088 146.14404297 260.27746582 C146.78112183 259.88765533 147.41820068 259.49784485 148.07458496 259.09622192 C155.332062 254.66312855 162.65197622 250.33636112 169.97216797 246.00793457 C181.42335558 239.23158929 192.83299833 232.3916296 204.18725586 225.45397949 C209.42765058 222.2548726 214.67701035 219.08013878 219.98388672 215.99230957 C220.9065332 215.45211182 221.82917969 214.91191406 222.77978516 214.35534668 C224.463653 213.37256938 226.15268867 212.39856128 227.84814453 211.43591309 C233.24754333 208.27412942 237.57015822 205.01295895 239.97216797 199.00793457 C239.97216797 195.33275829 239.03281556 193.56768402 236.97216797 190.50793457 C230.87538251 184.96899095 223.37244428 181.04734907 216.29638672 176.90881348 C212.70845616 174.80994167 209.12991969 172.69514542 205.55029297 170.58215332 C204.8237854 170.15381195 204.09727783 169.72547058 203.34875488 169.28414917 C196.51926869 165.252656 189.74138912 161.13956796 182.97216797 157.00793457 C171.49619509 150.01223953 159.96015282 143.1220925 148.39086914 136.28186035 C142.4670456 132.77826193 136.55123967 129.26600862 130.67919922 125.67590332 C129.29087891 124.82959351 129.29087891 124.82959351 127.87451172 123.96618652 C126.21047394 122.94890852 124.54998777 121.92578522 122.89404297 120.89538574 C116.08364515 116.73863689 112.42555201 115.50519129 104.97216797 119.50793457 Z " fill="#4556DA" transform="translate(97.02783203125,58.4920654296875)"/>
</svg>
